<?xml version="1.0" encoding="UTF-8"?>
<svg id="Layer_1" data-name="Layer 1" xmlns="http://www.w3.org/2000/svg" viewBox="0 0 1008 1008">
  <defs>
    <style>
      .cls-1 {
        fill: #fd9322;
      }

      .cls-2 {
        fill: #2c3339;
      }

      .cls-3 {
        fill: #fdfdfd;
      }
    </style>
  </defs>
  <path class="cls-2" d="M505.63,478.66c13.22,52.85,14.96,111.06,17.67,165.69,3.57,1.56,6.91,1.75,10.13,1.85,8.09.26,15.1.23,22.13,0,3.72-.12,9.21.15,10.92-2.37,2.45-46.28,4.28-123.78,17.14-165.35l341.47.25-.08,70.01c-40.8,11.6-78.64,24.71-115.56,43.11-19.95,10.09-38.06,20.72-55.67,34.1-38.74,29.44-44.48,77.73-22.4,118.8,9.85,17.41,24.2,30.03,43.89,36.39l-.15,75.13-119.57-.16c-9.58-22.57-33.79-38.44-55.7-44.99-35.26-10.54-73.28-7.92-106.13,8.42-16.19,8.05-28.6,20.04-35.87,36.6l-117.53.04v-75.11c16.28-5.61,28.37-15.45,37.86-29.21,18.96-25.79,25.77-78.67-1.16-101.38-64.08-2.24-132.08-15.42-189.68-43.56-40.54-19.8-87.11-53.89-104.44-98.87l267.72-.05.34-29.25,154.67-.08h0Z"/>
  <g>
    <path class="cls-1" d="M583.63,478.49c-12.87,41.58-14.68,119.08-17.14,165.35-1.71,2.52-7.2,2.25-10.92,2.37-.81-53.72-.38-107.35,2.12-161.57,3.38-73.58,24.12-116.92,101.21-130.86,4-3.45,3.87-17.78.71-22.12-1.3-1.79-5.37-3.26-8.6-3.26h-216.9c-5.02,0-8.83,4.12-8.82,8.39l.03,12.2c0,2.29,3.48,5.52,6.08,5.9,78.8,11.54,97.28,60.31,100.27,132.86,2.2,53.32,2.57,105.82,1.77,158.45-3.22-.11-6.57-.29-10.13-1.85-2.73-54.63-4.45-112.84-17.67-165.69-4.21-25.38-25.88-51.53-54.3-52.02l-30.39-.53c-10.36-.19-19.56-9.74-19.55-20.58l.16-234.13c0-9.89,11.12-19.52,20.65-19.52l238.09-.15c11.95,0,24.33,7.88,24.33,21.06v232.72c.03,12.56-11.48,20.93-22.73,20.95-8.88.01-16.9-.24-25.45.3-17.62,1.13-32.11,11.58-41.97,25.36-5.74,8.02-7.82,16.69-10.83,26.38v-.03Z"/>
    <path class="cls-3" d="M555.56,646.21c-7.03.23-14.03.26-22.13,0,.78-52.63.41-105.13-1.77-158.45-2.99-72.55-21.48-121.32-100.27-132.86-2.61-.38-6.08-3.6-6.08-5.9l-.03-12.2c0-4.28,3.8-8.39,8.82-8.39h216.9c3.24,0,7.32,1.47,8.6,3.26,3.15,4.35,3.28,18.66-.71,22.12-77.09,13.95-97.83,57.28-101.21,130.86-2.49,54.21-2.93,107.85-2.12,161.57h0Z"/>
  </g>
</svg>