<?xml version="1.0" encoding="UTF-8"?>
<svg id="Layer_1" data-name="Layer 1" xmlns="http://www.w3.org/2000/svg" viewBox="0 0 1008 1008">
  <defs>
    <style>
      .cls-1 {
        fill: #fd9322;
      }

      .cls-2 {
        fill: #fefefe;
      }

      .cls-3 {
        fill: #2c3339;
      }
    </style>
  </defs>
  <g>
    <path class="cls-3" d="M504,937.69c-10.32,0-20.51-2.73-29.45-7.88l-324.59-187.4c-18.16-10.49-29.45-30.02-29.45-51v-374.81c0-20.97,11.28-40.51,29.45-51L474.55,78.2c8.94-5.17,19.12-7.9,29.45-7.9s20.51,2.73,29.45,7.88l324.59,187.4c18.16,10.49,29.45,30.02,29.45,51v374.81c0,20.97-11.28,40.51-29.45,51l-324.59,187.4c-8.94,5.15-19.12,7.88-29.45,7.88h0Z"/>
    <path class="cls-2" d="M504,912.27c-5.87,0-11.66-1.55-16.73-4.49l-324.59-187.4c-10.32-5.96-16.73-17.06-16.73-28.98v-374.81c0-11.92,6.41-23.02,16.73-28.98L487.27,100.21c5.08-2.93,10.86-4.49,16.73-4.49s11.66,1.55,16.73,4.49l324.59,187.4c10.32,5.96,16.73,17.06,16.73,28.98v374.81c0,11.92-6.41,23.02-16.73,28.98l-324.59,187.4c-5.08,2.93-10.86,4.49-16.73,4.49h0Z"/>
    <path class="cls-3" d="M845.1,691.4v-374.81c0-5.9-3.14-11.35-8.26-14.3l-324.59-187.4c-5.1-2.95-11.4-2.95-16.51,0l-324.59,187.4c-5.1,2.95-8.26,8.4-8.26,14.3v374.81c0,5.9,3.14,11.35,8.26,14.3l324.59,187.4c5.1,2.95,11.4,2.95,16.51,0l324.59-187.4c5.1-2.95,8.26-8.4,8.26-14.3Z"/>
  </g>
  <g>
    <path class="cls-2" d="M652.89,526.85h-277.52v9.96h-117.71c11.5,32.85,28.82,47.49,42.1,54.81,30.94,17.02,34.84,16.18,68.62,24.2,23.62,5.61,38.45,21.26,35.05,44.12-3.63,24.49-31.26,36.1-33.52,37v42.7h83.98v-.08c0-21.78,22.43-39.43,50.1-39.43s50.1,17.65,50.1,39.43v.08h93.33v-41.28c-2.36-1.16-30.99-17.49-31.96-44.84-.64-18.13,9.92-30.53,15.59-36.3,19.15-19.46,38.46-18.21,64.7-31.32,15.49-7.73,51.88-27.6,54.57-59.07h-97.44Z"/>
    <g>
      <path class="cls-3" d="M504,642.59c-9.56,0-18.26-5.21-22.71-13.57-1.68-3.17-2.59-6.46-2.73-9.79-1.97-50.13-5.18-94.41-7.53-122.73-1.14-13.83-2.14-25.78-11.39-41-2.45-4.04-5.33-7.87-8.59-11.45h-34.71c-17.04,0-30.9-13.87-30.9-30.9v-164.03c0-17.04,13.87-30.9,30.9-30.9h175.31c17.04,0,30.9,13.87,30.9,30.9v164.03c0,17.04-13.87,30.9-30.9,30.9h-34.71c-3.26,3.58-6.14,7.42-8.59,11.45-9.25,15.23-10.25,27.17-11.39,41-2.35,28.31-5.56,72.6-7.53,122.73-.14,3.34-1.04,6.63-2.73,9.79-4.44,8.37-13.14,13.57-22.71,13.57h.01Z"/>
      <g>
        <path class="cls-1" d="M591.65,235.15h-175.31c-7.71,0-13.96,6.25-13.96,13.96v164.03c0,7.71,6.25,13.96,13.96,13.96h41.79c5.76,5.39,11.3,11.86,16.01,19.61,11.1,18.28,12.52,33.14,13.79,48.41,2.85,34.43,5.77,77.53,7.57,123.47.04.82.31,1.67.75,2.5,3.23,6.09,12.23,6.09,15.47,0,.44-.84.73-1.68.75-2.5,1.81-45.94,4.73-89.04,7.57-123.47,1.27-15.26,2.69-30.13,13.79-48.41,4.7-7.75,10.25-14.22,16.01-19.61h41.79c7.71,0,13.96-6.25,13.96-13.96v-164.03c0-7.71-6.25-13.96-13.96-13.96h.01Z"/>
        <path class="cls-2" d="M583.95,352.37c-.85-1.03-2.15-1.6-3.48-1.6h-152.94c-1.33,0-2.63.57-3.48,1.6-1.53,1.84-3.53,5.16-2.93,9.53.73,5.31,4.71,8.08,6.44,9.05.47.26.97.43,1.5.52,7.64,1.26,24.73,5.65,40.17,19.92,20.31,18.77,24.67,51.6,25.37,61.75l4.8,160.62c.09,1.79,1.21,3.36,2.87,4.04h0c1.11.45,2.35.45,3.47,0h0c1.66-.68,2.78-2.25,2.87-4.04l4.8-160.62c.69-10.15,5.05-42.98,25.37-61.75,15.44-14.27,32.53-18.65,40.17-19.92.53-.09,1.03-.25,1.5-.52,1.74-.97,5.72-3.76,6.44-9.05.6-4.38-1.41-7.71-2.93-9.53h0Z"/>
      </g>
    </g>
    <circle class="cls-1" cx="504" cy="755.6" r="17.84"/>
  </g>
</svg>