<?xml version="1.0" encoding="UTF-8"?>
<svg id="Layer_1" data-name="Layer 1" xmlns="http://www.w3.org/2000/svg" viewBox="0 0 1008 1008">
  <defs>
    <style>
      .cls-1 {
        fill: #fd9322;
      }

      .cls-2 {
        fill: #2c3339;
      }

      .cls-3 {
        fill: #fdfdfd;
      }
    </style>
  </defs>
  <g>
    <path class="cls-2" d="M97.02,701.42h67.65v16.37h-48.76v22.32h38.27v16.37h-38.27v39.95h-18.89v-95.01h0Z"/>
    <path class="cls-2" d="M178.14,749.13c0-28.76,20.99-49.11,49.74-49.11s49.81,20.43,49.81,49.11-20.92,48.69-49.81,48.69-49.74-20.01-49.74-48.69h0ZM227.95,780.26c17.77,0,30.37-12.59,30.37-31.2s-12.59-31.41-30.37-31.41-30.37,12.94-30.37,31.41,12.81,31.2,30.37,31.2h0Z"/>
    <path class="cls-2" d="M301.37,760.32v-58.91h18.82v58.49c0,12.87,9.24,20.99,21.83,20.99s21.83-8.11,21.83-20.99v-58.49h18.82v58.91c0,22.8-16.3,37.49-40.65,37.49s-40.65-14.69-40.65-37.49Z"/>
    <path class="cls-2" d="M412.49,796.42v-95.01h17.14l52.54,65.2v-65.2h18.89v95.01h-17.42l-52.26-64.5v64.5h-18.89Z"/>
    <path class="cls-2" d="M531.94,701.48h39.32c28.19,0,49.04,20.36,49.04,47.5s-20.84,47.5-49.04,47.5h-39.32v-95.01h0ZM550.83,780.19h19.87c18.05,0,30.29-13.57,30.29-31.2s-12.24-31.27-30.29-31.27h-19.87v62.47Z"/>
    <path class="cls-2" d="M645.03,796.35v-94.93h41.91c20.64,0,34,12.31,34,30.5,0,12.11-6.65,22.04-17.7,26.8l21.48,37.71h-20.71l-19.38-34.56h-20.64v34.49h-18.96ZM663.98,745.49h21.75c10.42,0,15.81-6.37,15.81-13.57,0-7.9-5.39-14.13-15.81-14.13h-21.75v27.71h0Z"/>
    <path class="cls-2" d="M756.22,701.42l23.85,39.95,24.14-39.95h21.83l-36.66,59.11v35.89h-18.82v-35.89l-36.87-59.11h22.53Z"/>
    <path class="cls-1" d="M829.64,783.03c4.1,0,7.28,3.18,7.28,7.18s-3.18,7.18-7.28,7.18-7.23-3.13-7.23-7.18,3.13-7.18,7.23-7.18h0Z"/>
    <path class="cls-1" d="M834.52,815.18l1.18-10.06c1.57.49,3.81.98,5.91.98,4.25,0,6.79-2.2,6.79-8.06v-48.46h12.56v49.29c0,11.77-7.09,18.08-17.29,18.08-4.1,0-7.43-.88-9.14-1.76ZM847.71,734.47c0-4.25,2.93-7.23,7.18-7.23s7.23,2.93,7.23,7.23-2.98,7.18-7.23,7.18-7.18-2.93-7.18-7.18Z"/>
    <path class="cls-1" d="M879.96,779.72c2.83,4.39,7.62,7.23,12.36,7.23,3.76,0,6.7-1.47,6.7-4.1,0-2.49-2.49-3.37-8.2-4.64-10.26-2.29-17.49-5.57-17.49-15.19,0-8.8,8.11-14.46,18.32-14.46,9.53,0,15.44,4.69,18.81,9.77l-8.01,6.6c-2.05-3.28-5.52-5.81-10.51-5.81-4.05,0-6.84,1.42-6.84,3.76,0,2.54,2.98,3.37,8.8,4.79,10.46,2.54,17.1,5.91,17.1,15.19s-8.5,14.56-18.52,14.56c-9.23,0-16.66-4.25-20.91-10.9l8.4-6.79h0Z"/>
  </g>
  <g>
    <path class="cls-2" d="M477.42,396.98c8.33,33.29,9.42,69.95,11.13,104.36,2.25.98,4.35,1.1,6.38,1.17,5.09.17,9.51.14,13.94,0,2.34-.08,5.8.09,6.88-1.49,1.54-29.15,2.69-77.97,10.8-104.15l215.09.16-.05,44.1c-25.7,7.3-49.53,15.57-72.79,27.16-12.56,6.35-23.97,13.05-35.07,21.48-24.4,18.54-28.01,48.96-14.11,74.83,6.2,10.96,15.24,18.92,27.65,22.92l-.09,47.32-75.31-.1c-6.04-14.22-21.29-24.21-35.09-28.34-22.21-6.64-46.16-4.99-66.85,5.3-10.2,5.07-18.02,12.62-22.6,23.05l-74.03.03v-47.31c10.26-3.54,17.87-9.73,23.85-18.4,11.94-16.24,16.23-49.55-.73-63.86-40.36-1.41-83.19-9.71-119.48-27.44-25.54-12.47-54.87-33.94-65.78-62.27l168.63-.03.22-18.43,97.43-.05h0Z"/>
    <path class="cls-1" d="M526.55,396.87c-8.1,26.19-9.25,75.01-10.8,104.15-1.08,1.58-4.54,1.42-6.88,1.49-.51-33.83-.24-67.62,1.33-101.77,2.13-46.35,15.19-73.65,63.75-82.43,2.52-2.18,2.43-11.2.45-13.93-.82-1.13-3.39-2.05-5.42-2.05h-136.62c-3.16,0-5.56,2.59-5.55,5.29l.02,7.69c0,1.44,2.19,3.48,3.83,3.72,49.63,7.27,61.27,37.99,63.16,83.69,1.38,33.58,1.62,66.65,1.12,99.8-2.03-.07-4.14-.18-6.38-1.17-1.72-34.41-2.8-71.08-11.13-104.36-2.65-15.98-16.3-32.46-34.2-32.77l-19.14-.33c-6.53-.12-12.32-6.14-12.31-12.97l.1-147.48c0-6.23,7-12.3,13.01-12.3l149.97-.09c7.53,0,15.32,4.96,15.32,13.27v146.59c.02,7.91-7.23,13.18-14.32,13.2-5.59,0-10.65-.15-16.03.19-11.1.71-20.23,7.3-26.44,15.98-3.62,5.05-4.93,10.51-6.82,16.62v-.02Z"/>
    <path class="cls-3" d="M508.87,502.52c-4.43.14-8.84.17-13.94,0,.49-33.15.26-66.22-1.12-99.8-1.88-45.7-13.53-76.42-63.16-83.69-1.64-.24-3.83-2.27-3.83-3.72l-.02-7.69c0-2.69,2.39-5.29,5.55-5.29h136.62c2.04,0,4.61.93,5.42,2.05,1.98,2.74,2.07,11.76-.45,13.93-48.56,8.79-61.62,36.08-63.75,82.43-1.57,34.14-1.84,67.94-1.33,101.77h0Z"/>
  </g>
</svg>