<?xml version="1.0" encoding="UTF-8"?>
<svg id="Layer_1" data-name="Layer 1" xmlns="http://www.w3.org/2000/svg" viewBox="0 0 1008 1008">
  <defs>
    <style>
      .cls-1 {
        fill: #fd9322;
      }

      .cls-2 {
        fill: #fefefe;
      }

      .cls-3 {
        fill: #2c3339;
      }
    </style>
  </defs>
  <g>
    <path class="cls-3" d="M78.16,819.33h70.79v17.13h-51.02v23.35h40.04v17.13h-40.04v41.8h-19.76v-99.41h-.01Z"/>
    <path class="cls-3" d="M163.04,869.25c0-30.09,21.96-51.39,52.05-51.39s52.12,21.37,52.12,51.39-21.89,50.95-52.12,50.95-52.05-20.94-52.05-50.95h0ZM215.16,901.82c18.59,0,31.77-13.18,31.77-32.65s-13.18-32.87-31.77-32.87-31.77,13.54-31.77,32.87,13.4,32.65,31.77,32.65Z"/>
    <path class="cls-3" d="M291.98,880.96v-61.64h19.69v61.2c0,13.47,9.66,21.96,22.84,21.96s22.84-8.49,22.84-21.96v-61.2h19.69v61.64c0,23.86-17.06,39.24-42.53,39.24s-42.53-15.37-42.53-39.24Z"/>
    <path class="cls-3" d="M408.25,918.73v-99.41h17.93l54.97,68.22v-68.22h19.76v99.41h-18.23l-54.68-67.49v67.49h-19.76,0Z"/>
    <path class="cls-3" d="M533.24,819.4h41.14c29.5,0,51.31,21.3,51.31,49.7s-21.81,49.7-51.31,49.7h-41.14v-99.41h0ZM553,901.75h20.79c18.89,0,31.7-14.2,31.7-32.65s-12.81-32.72-31.7-32.72h-20.79v65.37Z"/>
    <path class="cls-3" d="M651.56,918.66v-99.34h43.85c21.59,0,35.58,12.88,35.58,31.92,0,12.66-6.95,23.06-18.52,28.04l22.47,39.46h-21.67l-20.28-36.16h-21.59v36.09h-19.84,0ZM671.4,865.44h22.77c10.91,0,16.54-6.66,16.54-14.2,0-8.27-5.64-14.79-16.54-14.79h-22.77v28.99Z"/>
    <path class="cls-3" d="M767.91,819.33l24.96,41.8,25.26-41.8h22.84l-38.36,61.86v37.55h-19.69v-37.55l-38.58-61.86h23.57Z"/>
    <path class="cls-1" d="M844.72,904.73c4.29,0,7.62,3.32,7.62,7.51s-3.32,7.51-7.62,7.51-7.57-3.27-7.57-7.51,3.27-7.51,7.57-7.51Z"/>
    <path class="cls-1" d="M849.84,938.36l1.23-10.53c1.64.51,3.99,1.02,6.19,1.02,4.45,0,7.11-2.3,7.11-8.43v-50.71h13.14v51.58c0,12.32-7.41,18.91-18.1,18.91-4.29,0-7.77-.92-9.56-1.84h0ZM863.64,853.92c0-4.45,3.07-7.57,7.51-7.57s7.57,3.07,7.57,7.57-3.12,7.51-7.57,7.51-7.51-3.07-7.51-7.51Z"/>
    <path class="cls-1" d="M897.38,901.25c2.96,4.6,7.97,7.57,12.93,7.57,3.94,0,7-1.53,7-4.29,0-2.61-2.61-3.53-8.59-4.86-10.73-2.4-18.3-5.83-18.3-15.9,0-9.2,8.49-15.13,19.17-15.13,9.97,0,16.15,4.91,19.68,10.22l-8.38,6.9c-2.15-3.42-5.78-6.08-10.99-6.08-4.24,0-7.16,1.48-7.16,3.94,0,2.66,3.12,3.53,9.2,5.01,10.94,2.66,17.89,6.19,17.89,15.9s-8.89,15.23-19.37,15.23c-9.66,0-17.43-4.45-21.88-11.4l8.79-7.11h0Z"/>
  </g>
  <g>
    <g>
      <path class="cls-3" d="M504,757.67c-8.21,0-16.31-2.17-23.42-6.27l-258.16-149.05c-14.44-8.34-23.42-23.88-23.42-40.56v-298.1c0-16.68,8.97-32.22,23.42-40.56L480.58,74.08c7.11-4.11,15.21-6.28,23.42-6.28s16.31,2.17,23.42,6.27l258.16,149.05c14.44,8.34,23.42,23.88,23.42,40.56v298.1c0,16.68-8.97,32.22-23.42,40.56l-258.16,149.05c-7.11,4.1-15.21,6.27-23.42,6.27h0Z"/>
      <path class="cls-2" d="M504,737.45c-4.67,0-9.27-1.23-13.31-3.57l-258.16-149.05c-8.21-4.74-13.31-13.57-13.31-23.05v-298.1c0-9.48,5.1-18.31,13.31-23.05L490.69,91.58c4.04-2.33,8.64-3.57,13.31-3.57s9.27,1.23,13.31,3.57l258.16,149.05c8.21,4.74,13.31,13.57,13.31,23.05v298.1c0,9.48-5.1,18.31-13.31,23.05l-258.16,149.05c-4.04,2.33-8.64,3.57-13.31,3.57h0Z"/>
      <path class="cls-3" d="M775.29,561.78v-298.1c0-4.69-2.5-9.03-6.57-11.37L510.57,103.26c-4.06-2.35-9.07-2.35-13.13,0L239.28,252.31c-4.06,2.35-6.57,6.68-6.57,11.37v298.1c0,4.69,2.5,9.03,6.57,11.37l258.16,149.05c4.06,2.35,9.07,2.35,13.13,0l258.16-149.05c4.06-2.35,6.57-6.68,6.57-11.37Z"/>
    </g>
    <g>
      <path class="cls-2" d="M622.42,430.91h-220.72v7.92h-93.62c9.15,26.13,22.92,37.77,33.48,43.59,24.61,13.54,27.71,12.87,54.58,19.25,18.79,4.46,30.58,16.91,27.88,35.09-2.89,19.48-24.86,28.71-26.66,29.43v33.96h66.79v-.06c0-17.32,17.84-31.36,39.85-31.36s39.85,14.04,39.85,31.36v.06h74.23v-32.83c-1.88-.92-24.65-13.91-25.42-35.66-.51-14.42,7.89-24.28,12.4-28.87,15.23-15.48,30.59-14.48,51.46-24.91,12.32-6.15,41.26-21.95,43.4-46.98h-77.5Z"/>
      <g>
        <path class="cls-3" d="M504,522.96c-7.6,0-14.52-4.14-18.06-10.79-1.34-2.52-2.06-5.14-2.17-7.79-1.57-39.87-4.12-75.09-5.99-97.61-.91-11-1.7-20.5-9.06-32.61-1.95-3.21-4.24-6.26-6.83-9.11h-27.61c-13.55,0-24.58-11.03-24.58-24.58v-130.46c0-13.55,11.03-24.58,24.58-24.58h139.43c13.55,0,24.58,11.03,24.58,24.58v130.46c0,13.55-11.03,24.58-24.58,24.58h-27.61c-2.59,2.85-4.88,5.9-6.83,9.11-7.36,12.11-8.15,21.61-9.06,32.61-1.87,22.52-4.42,57.74-5.99,97.61-.11,2.66-.83,5.27-2.17,7.79-3.53,6.66-10.45,10.79-18.06,10.79h0Z"/>
        <g>
          <path class="cls-1" d="M573.71,198.91h-139.43c-6.13,0-11.1,4.97-11.1,11.1v130.46c0,6.13,4.97,11.1,11.1,11.1h33.24c4.58,4.29,8.99,9.43,12.73,15.6,8.83,14.54,9.96,26.36,10.97,38.5,2.27,27.38,4.59,61.66,6.02,98.2.03.65.25,1.33.6,1.99,2.57,4.84,9.73,4.84,12.3,0,.35-.67.58-1.34.6-1.99,1.44-36.54,3.76-70.82,6.02-98.2,1.01-12.14,2.14-23.96,10.97-38.5,3.74-6.16,8.15-11.31,12.73-15.6h33.24c6.13,0,11.1-4.97,11.1-11.1v-130.46c0-6.13-4.97-11.1-11.1-11.1h.01Z"/>
          <path class="cls-2" d="M567.59,292.14c-.68-.82-1.71-1.27-2.77-1.27h-121.64c-1.06,0-2.09.45-2.77,1.27-1.22,1.46-2.81,4.1-2.33,7.58.58,4.22,3.75,6.43,5.12,7.2.37.21.77.34,1.19.41,6.08,1,19.67,4.49,31.95,15.84,16.15,14.93,19.62,41.04,20.18,49.11l3.82,127.75c.07,1.42.96,2.67,2.28,3.21h0c.88.36,1.87.36,2.76,0h0c1.32-.54,2.21-1.79,2.28-3.21l3.82-127.75c.55-8.07,4.02-34.18,20.18-49.11,12.28-11.35,25.87-14.83,31.95-15.84.42-.07.82-.2,1.19-.41,1.38-.77,4.55-2.99,5.12-7.2.48-3.48-1.12-6.13-2.33-7.58h0Z"/>
        </g>
      </g>
      <circle class="cls-1" cx="504" cy="612.84" r="14.19"/>
    </g>
  </g>
</svg>